<?xml version="1.0" standalone="no"?>
<!DOCTYPE svg PUBLIC "-//W3C//DTD SVG 20010904//EN"
 "http://www.w3.org/TR/2001/REC-SVG-20010904/DTD/svg10.dtd">
<svg version="1.0" xmlns="http://www.w3.org/2000/svg"
 width="455.000000pt" height="447.000000pt" viewBox="0 0 455.000000 447.000000"
 preserveAspectRatio="xMidYMid meet">

<g transform="translate(0.000000,447.000000) scale(0.100000,-0.100000)"
fill="#E91E1E" stroke="none">
<path d="M2140 4230 c-8 -5 -27 -10 -42 -10 -38 0 -224 -62 -283 -95 -152 -83
-290 -236 -352 -388 -51 -127 -67 -211 -67 -372 0 -88 5 -175 12 -210 56 -253
185 -469 455 -755 l87 -93 110 109 c60 60 110 116 110 124 0 8 -24 40 -53 70
-253 265 -371 478 -384 695 -19 307 213 554 519 555 183 0 346 -88 446 -243
68 -103 85 -163 86 -297 0 -91 -4 -129 -21 -182 -22 -70 -19 -82 12 -48 27 30
201 144 283 184 l72 36 0 49 c0 168 -85 401 -200 545 -111 140 -292 258 -460
301 -36 9 -79 20 -96 25 -40 13 -215 13 -234 0z"/>
<path d="M2156 3604 c-149 -54 -229 -220 -182 -375 33 -108 92 -197 218 -324
l79 -80 98 101 c161 166 210 255 211 379 0 132 -57 227 -172 284 -53 27 -72
31 -137 30 -42 0 -94 -7 -115 -15z"/>
<path d="M947 3538 c-2 -7 -4 -92 -3 -188 1 -169 2 -175 21 -172 11 1 65 6
120 10 l100 7 3 50 c3 51 15 68 43 60 9 -3 26 -2 39 3 23 9 22 3 33 207 l2 30
-176 3 c-136 2 -178 0 -182 -10z"/>
<path d="M3209 3538 c-1 -14 -1 -16 15 -143 l11 -90 42 -1 c24 0 46 -3 49 -7
4 -4 9 -29 12 -56 l4 -50 112 -3 c61 -2 114 0 119 3 4 3 6 84 5 180 l-3 174
-182 3 c-143 2 -183 0 -184 -10z"/>
<path d="M1000 3085 c-95 -17 -145 -33 -218 -67 -252 -115 -431 -325 -498
-582 -8 -33 -20 -77 -25 -96 -12 -40 -7 -200 9 -276 16 -77 67 -224 97 -280
156 -284 469 -442 830 -420 256 15 489 120 749 337 54 46 255 236 445 423 191
188 384 370 430 406 255 200 485 266 711 204 171 -48 319 -211 351 -389 13
-70 6 -226 -11 -270 -72 -178 -179 -285 -341 -342 -99 -35 -260 -38 -359 -5
-35 12 -65 20 -67 18 -2 -1 17 -29 42 -61 59 -76 127 -185 161 -258 14 -32 33
-61 42 -65 31 -12 208 16 306 49 234 77 411 230 517 444 64 130 80 194 86 338
9 189 -19 318 -99 468 -150 281 -425 439 -768 439 -303 0 -567 -120 -880 -399
-47 -42 -231 -220 -410 -396 -419 -413 -548 -510 -760 -576 -109 -33 -267 -32
-366 3 -170 60 -283 183 -330 361 -18 66 -18 197 0 263 47 179 203 334 386
385 67 19 233 16 308 -6 34 -10 65 -15 69 -12 3 4 -10 26 -29 49 -52 65 -121
174 -162 256 l-36 72 -58 -1 c-31 -1 -86 -7 -122 -14z"/>
<path d="M1057 2531 c-104 -42 -166 -121 -186 -235 -19 -112 29 -238 115 -299
124 -88 254 -87 402 2 64 38 272 223 272 242 0 14 -136 144 -204 196 -96 72
-176 105 -271 109 -63 4 -90 0 -128 -15z"/>
<path d="M3295 2543 c-43 -11 -123 -49 -175 -84 -68 -45 -230 -196 -230 -214
0 -18 191 -199 253 -240 156 -102 329 -96 444 17 62 61 88 125 88 223 0 71 -4
89 -32 146 -36 74 -93 122 -170 145 -44 13 -136 17 -178 7z"/>
<path d="M2461 2042 c-61 -61 -111 -116 -111 -122 0 -6 42 -57 93 -113 168
-184 259 -323 313 -482 24 -69 28 -96 28 -195 1 -141 -21 -213 -95 -320 -55
-78 -154 -153 -246 -185 -66 -23 -226 -31 -294 -15 -89 21 -187 77 -259 150
-145 145 -195 360 -131 560 11 35 19 66 17 67 -2 2 -20 -11 -42 -28 -62 -50
-172 -121 -259 -165 l-80 -41 2 -77 c6 -241 126 -486 316 -647 159 -134 338
-199 548 -199 185 0 324 37 477 128 177 106 306 283 364 502 30 112 32 367 4
470 -74 274 -189 455 -497 784 l-37 39 -111 -111z"/>
<path d="M2179 1518 c-190 -197 -254 -364 -198 -514 77 -205 350 -260 510
-102 61 60 82 110 87 206 5 98 -9 144 -74 242 -53 80 -210 250 -231 250 -8 0
-51 -37 -94 -82z"/>
<path d="M3505 1280 c-27 -5 -76 -11 -107 -15 l-58 -6 0 -37 c0 -54 -12 -66
-62 -67 l-43 0 -11 -115 c-7 -63 -9 -118 -5 -123 4 -4 86 -6 182 -5 l174 3 3
188 c2 146 0 187 -10 186 -7 -1 -35 -5 -63 -9z"/>
<path d="M947 1273 c-6 -10 -7 -322 -1 -345 5 -16 22 -18 184 -18 98 0 181 3
183 8 4 7 -8 125 -21 197 -5 30 -12 40 -27 41 -81 4 -75 0 -75 53 l0 49 -97 7
c-54 3 -108 9 -119 12 -12 2 -24 1 -27 -4z"/>
</g>
</svg>
